<svg version="1.1" id="Layer_1" xmlns="http://www.w3.org/2000/svg" xmlns:xlink="http://www.w3.org/1999/xlink" x="0px" y="0px"
	 width="100%" viewBox="0 0 420 420" enable-background="new 0 0 420 420" xml:space="preserve">
<defs>
<clipPath id="circleClip">
<circle cx="210" cy="210" r="210"/>
</clipPath>
</defs>
<g clip-path="url(#circleClip)">
<path fill="#F0F0F0" opacity="1.000000" stroke="none" 
	d="
M284.000000,421.000000 
	C189.333344,421.000000 95.166687,421.000000 1.000025,421.000000 
	C1.000017,281.000031 1.000017,141.000061 1.000008,1.000063 
	C140.999954,1.000042 280.999908,1.000042 420.999908,1.000021 
	C420.999939,140.999939 420.999939,280.999878 420.999969,420.999908 
	C375.500000,421.000000 330.000000,421.000000 284.000000,421.000000 
M67.500000,106.000000 
	C57.087032,106.000000 46.674065,106.000000 36.390381,106.000000 
	C36.390381,130.130478 36.390381,153.372498 36.390381,176.662460 
	C60.023582,176.662460 83.264824,176.662460 107.215866,176.662460 
	C107.215866,153.303207 107.215866,130.271576 107.215866,107.408707 
	C130.504471,107.408707 153.078430,107.408707 176.176697,107.408707 
	C176.176697,154.056946 176.176697,200.299149 176.176697,246.699005 
	C199.949570,246.699005 223.190521,246.699005 247.138077,246.699005 
	C247.138077,200.041626 247.138077,153.679459 247.138077,107.370148 
	C270.422821,107.370148 292.997955,107.370148 316.101624,107.370148 
	C316.101624,130.647125 316.101624,153.559143 316.101624,176.558746 
	C339.996521,176.558746 363.355804,176.558746 386.611572,176.558746 
	C386.611572,152.873489 386.611572,129.631516 386.611572,105.861885 
	C363.316193,105.861885 340.403412,105.861885 316.788788,105.861885 
	C316.788788,82.306274 316.788788,59.273781 316.788788,36.406708 
	C292.833923,36.406708 269.592957,36.406708 245.825302,36.406708 
	C245.825302,59.720936 245.825302,82.633789 245.825302,105.698898 
	C222.716980,105.698898 200.142654,105.698898 176.859711,105.698898 
	C176.859711,82.374298 176.859711,59.339428 176.859711,36.372223 
	C152.906265,36.372223 129.664551,36.372223 105.894241,36.372223 
	C105.894241,59.651363 105.894241,82.563332 105.894241,106.000000 
	C93.078903,106.000000 80.789452,106.000000 67.500000,106.000000 
M161.496338,387.000000 
	C166.579025,387.000000 171.661713,387.000000 176.626831,387.000000 
	C176.626831,362.886292 176.626831,339.653442 176.626831,315.905609 
	C153.355728,315.905609 130.452744,315.905609 106.861115,315.905609 
	C106.861115,292.371124 106.861115,269.345764 106.861115,246.351379 
	C82.930473,246.351379 59.697880,246.351379 36.464554,246.351379 
	C36.464554,270.053070 36.464554,293.400360 36.464554,317.266418 
	C59.827328,317.266418 82.729408,317.266418 106.139366,317.266418 
	C106.139366,340.689606 106.139366,363.593018 106.139366,387.000000 
	C124.602257,387.000000 142.550125,387.000000 161.496338,387.000000 
M317.000031,328.533142 
	C317.000977,325.701111 317.038605,322.868500 316.991699,320.037262 
	C316.951599,317.617035 317.703094,316.675598 320.474426,316.704437 
	C341.624542,316.924255 362.776917,316.931274 383.928619,316.968384 
	C384.858704,316.970001 385.789368,316.620911 386.643494,316.450439 
	C386.643494,292.925751 386.643494,269.690277 386.643494,246.294464 
	C363.051300,246.294464 339.816498,246.294464 316.100494,246.294464 
	C316.100494,268.355591 315.810547,290.133698 316.336639,311.892059 
	C316.446442,316.431946 314.658691,315.991943 311.970642,315.993500 
	C291.813110,316.005066 271.655609,315.993530 251.498108,316.011353 
	C249.747528,316.012909 247.997086,316.173798 246.382050,316.253967 
	C246.382050,340.125946 246.382050,363.361786 246.382050,386.680023 
	C270.000427,386.680023 293.235382,386.680023 317.000000,386.680023 
	C317.000000,367.417053 317.000000,348.469147 317.000031,328.533142 
z"/>
<path fill="#DDB96D" opacity="1.000000" stroke="none" 
	d="
M68.000000,106.000000 
	C80.789452,106.000000 93.078903,106.000000 105.894241,106.000000 
	C105.894241,82.563332 105.894241,59.651363 105.894241,36.372223 
	C129.664551,36.372223 152.906265,36.372223 176.859711,36.372223 
	C176.859711,59.339428 176.859711,82.374298 176.859711,105.698898 
	C200.142654,105.698898 222.716980,105.698898 245.825302,105.698898 
	C245.825302,82.633789 245.825302,59.720936 245.825302,36.406708 
	C269.592957,36.406708 292.833923,36.406708 316.788788,36.406708 
	C316.788788,59.273781 316.788788,82.306274 316.788788,105.861885 
	C340.403412,105.861885 363.316193,105.861885 386.611572,105.861885 
	C386.611572,129.631516 386.611572,152.873489 386.611572,176.558746 
	C363.355804,176.558746 339.996521,176.558746 316.101624,176.558746 
	C316.101624,153.559143 316.101624,130.647125 316.101624,107.370148 
	C292.997955,107.370148 270.422821,107.370148 247.138077,107.370148 
	C247.138077,153.679459 247.138077,200.041626 247.138077,246.699005 
	C223.190521,246.699005 199.949570,246.699005 176.176697,246.699005 
	C176.176697,200.299149 176.176697,154.056946 176.176697,107.408707 
	C153.078430,107.408707 130.504471,107.408707 107.215866,107.408707 
	C107.215866,130.271576 107.215866,153.303207 107.215866,176.662460 
	C83.264824,176.662460 60.023582,176.662460 36.390381,176.662460 
	C36.390381,153.372498 36.390381,130.130478 36.390381,106.000000 
	C46.674065,106.000000 57.087032,106.000000 68.000000,106.000000 
z"/>
<path fill="#DDB96D" opacity="1.000000" stroke="none" 
	d="
M160.997162,387.000000 
	C142.550125,387.000000 124.602257,387.000000 106.139366,387.000000 
	C106.139366,363.593018 106.139366,340.689606 106.139366,317.266418 
	C82.729408,317.266418 59.827328,317.266418 36.464554,317.266418 
	C36.464554,293.400360 36.464554,270.053070 36.464554,246.351379 
	C59.697880,246.351379 82.930473,246.351379 106.861115,246.351379 
	C106.861115,269.345764 106.861115,292.371124 106.861115,315.905609 
	C130.452744,315.905609 153.355728,315.905609 176.626831,315.905609 
	C176.626831,339.653442 176.626831,362.886292 176.626831,387.000000 
	C171.661713,387.000000 166.579025,387.000000 160.997162,387.000000 
z"/>
<path fill="#DDB96D" opacity="1.000000" stroke="none" 
	d="
M317.000000,329.027191 
	C317.000000,348.469147 317.000000,367.417053 317.000000,386.680023 
	C293.235382,386.680023 270.000427,386.680023 246.382050,386.680023 
	C246.382050,363.361786 246.382050,340.125946 246.382050,316.253967 
	C247.997086,316.173798 249.747528,316.012909 251.498108,316.011353 
	C271.655609,315.993530 291.813110,316.005066 311.970642,315.993500 
	C314.658691,315.991943 316.446442,316.431946 316.336639,311.892059 
	C315.810547,290.133698 316.100494,268.355591 316.100494,246.294464 
	C339.816498,246.294464 363.051300,246.294464 386.643494,246.294464 
	C386.643494,269.690277 386.643494,292.925751 386.643494,316.450439 
	C385.789368,316.620911 384.858704,316.970001 383.928619,316.968384 
	C362.776917,316.931274 341.624542,316.924255 320.474426,316.704437 
	C317.703094,316.675598 316.951599,317.617035 316.991699,320.037262 
	C317.038605,322.868500 317.000977,325.701111 317.000000,329.027191 
z"/>
</g>
</svg>